<?xml version="1.0" standalone="no"?>
<!DOCTYPE svg PUBLIC "-//W3C//DTD SVG 1.1//EN" "http://www.w3.org/Graphics/SVG/1.1/DTD/svg11.dtd">
<svg t="1760868411167" class="icon" viewBox="0 0 1024 1024" version="1.1" xmlns="http://www.w3.org/2000/svg" p-id="7690" xmlns:xlink="http://www.w3.org/1999/xlink" width="200" height="200">
  <path d="M511.737092 0C230.010135 0 1.639717 228.370417 1.639717 510.097374s228.370417 510.097374 510.097375 510.097375 510.097374-228.370417 510.097374-510.097375S793.450211 0 511.737092 0z m0 991.856006c-265.648041 0-481.758631-216.124427-481.758632-481.758632 0-265.648041 216.11059-481.758631 481.758632-481.758631 265.634204 0 481.758631 216.11059 481.758631 481.758631 0 265.634204-216.124427 481.758631-481.758631 481.758632zM697.364161 554.404335" fill="#FFFFFF" p-id="7691"></path>
  <path d="M954.875883 625.182006c-17.241247 35.755523-35.630988 45.57999-73.725011 39.560775-24.464306-3.8606-37.844952-18.196019-41.456481-46.783833 14.764374 0 29.348864-0.373606 43.864167 0.124535 9.769117 0.373606 14.197046-2.919665 13.82344-13.186925-0.567328-14.833561 0-29.791657-0.373606-44.625218-0.442793-12.425875-7.223059-20.534519-19.911842-20.797427-25.488264-0.567328-50.962691-0.193722-78.927827-0.193722v126.209803h-56.732835v-125.393403h-57.244815v-58.324122h55.653528v-49.509777h-36.959367V375.266949c12.176804-0.567328 23.841628-1.203843 37.526695-1.840358V353.680797h57.175628c-2.213964 15.912868 3.998973 21.046498 20.534519 21.295569 43.933354 0.691864 67.069281 25.419078 67.899518 69.546153 0.249071 12.107617 0.069186 24.215235 0.069186 37.526695 35.506452-1.646636 57.36935 12.993203 68.785103 43.103118v100.029674zM797.975001 429.564423c0 17.434969-0.691864 30.428172 0.442793 43.227653 0.318257 3.293272 6.406659 8.551437 9.824466 8.551437 6.904801 0.069186 19.593584-2.213964 19.842655-4.690837 1.452914-13.242274 2.03408-27.508506-1.895706-39.934381-1.328379-4.303393-16.286475-4.372579-28.214208-7.153872z m-554.238288-75.952813c-0.124535 86.787401-0.069186 173.63015-0.511979 260.417551-0.193722 37.153088-23.454184 56.995743-58.517844 51.156413-22.942205-3.805251-35.36808-19.330676-36.253665-46.714647h38.094023V353.680797c19.095442-0.069186 38.177047-0.069186 57.189465-0.069187z m242.982582 0c-14.003324 27.951299-29.667122 55.210735-39.616124 81.778307 23.329649-1.328379 44.251611-2.532222 69.227897-3.998973-13.186925 26.622921-24.907098 50.20164-36.641109 73.849546-1.591287 3.168736-3.09955 6.462008-4.690837 9.630745-12.301339 24.658027-12.232153 24.727214 15.027282 25.488264 2.850479 0.069186 5.645609 0.442793 10.834588 0.885586-7.665851 15.027283-14.390768 28.712349-21.613826 42.162182-1.203843 2.213964-4.441766 4.760023-6.724917 4.760024-20.160912-0.069186-40.501709 0.636515-60.538086-1.591287-14.515303-1.646636-20.036377-12.619597-14.390768-26.429199 6.904801-17.047525 15.082632-33.596908 22.693134-50.340013 2.601408-5.770144 5.202816-11.540289 9.063416-20.091726-11.222032 0-19.330676 0.249071-27.453157-0.069187-24.090699-0.830237-32.074808-11.540289-22.181155-33.403186 15.663797-34.607029 33.154115-68.466846 49.828034-102.631083h57.175628zM68.653649 571.562558c3.611529-20.036377 8.177831-40.003567 10.585517-60.16448 3.044201-25.363728 4.248044-50.907342 6.337473-77.530262h60.16448c-10.21191 68.785103 2.03408 141.624529-43.047769 204.888559-12.038431-21.171034-23.080578-40.640082-34.108887-60.095294 0.069186-2.283151 0.069186-4.690837 0.069186-7.098523zM954.875883 410.787238c-12.868667 22.374877-33.223302 22.942205-55.03085 19.524398-6.531195-28.394092-1.840358-47.032904 13.311461-53.951542 14.141697-6.462008 27.065714-1.328379 41.705552 16.604732v17.822412z" fill="#FFFFFF" p-id="7692"></path>
  <path d="M624.026594 608.964718c15.663797 0 30.358985 0.318257 45.06801-0.124536 9.257138-0.249071 12.107617 3.55618 12.674946 12.619597 2.850479 45.137197 3.09955 45.137197-42.535789 45.137197H477.974136c10.018188-19.773469 18.126833-37.153088 27.702228-53.633285 1.771171-3.09955 9.506209-3.680716 14.515304-3.805251 14.197046-0.511979 28.463279-0.193722 44.057889-0.193722V432.151994h-36.447387v-56.096321h132.298204v55.210735h-36.12913c0.055349 59.652501 0.055349 117.53383 0.05535 177.69831zM284.376796 433.355837h56.359228c2.725944 34.800751 1.5221 69.864411 9.063417 102.94934 8.869694 38.730538-5.258165 68.715917-23.57872 99.268624-27.397808-23.952326-42.286718-95.712444-41.843925-202.217964z m101.496425 174.90318h91.284516c-10.21191 19.967191-18.251368 36.253665-27.065714 52.166533-1.646636 2.919665-6.462008 5.700958-9.893653 5.770145-26.622921 0.442793-53.245841 0.249071-83.798548 0.249071 11.595638-22.997554 21.101847-41.705552 29.473399-58.185749z" fill="#FFFFFF" p-id="7693"></path>
</svg>
